<svg xmlns="http://www.w3.org/2000/svg" viewBox="0 0 520 420" fill="none" role="img" aria-label="Ż2'14 Lighthouse">
  <defs>
    <linearGradient id="bg" x1="0" y1="0" x2="520" y2="420" gradientUnits="userSpaceOnUse">
      <stop stop-color="#1e1e2e"/>
      <stop offset="1" stop-color="#2d2d44"/>
    </linearGradient>
    <filter id="shadow" x="-20%" y="-20%" width="140%" height="140%">
      <feDropShadow dx="0" dy="8" stdDeviation="12" flood-color="#000" flood-opacity="0.35"/>
    </filter>
  </defs>
  <rect width="520" height="420" rx="16" fill="url(#bg)" filter="url(#shadow)"/>
  <rect x="24" y="24" width="472" height="48" rx="8" fill="#2a2a3d"/>
  <circle cx="44" cy="48" r="6" fill="#ff5f57"/>
  <circle cx="64" cy="48" r="6" fill="#febc2e"/>
  <circle cx="84" cy="48" r="6" fill="#28c840"/>
  <text x="260" y="54" text-anchor="middle" fill="#a0a0b8" font-family="system-ui,sans-serif" font-size="13">Lighthouse  foroshgah.example.com</text>
  <text x="40" y="108" fill="#fff" font-family="system-ui,sans-serif" font-size="18" font-weight="600">Performance</text>
  <circle cx="100" cy="175" r="58" stroke="#3d3d52" stroke-width="10" fill="none"/>
  <circle cx="100" cy="175" r="58" stroke="#0cce6b" stroke-width="10" fill="none" stroke-dasharray="320" stroke-dashoffset="6" transform="rotate(-90 100 175)"/>
  <text x="100" y="182" text-anchor="middle" fill="#0cce6b" font-family="system-ui,sans-serif" font-size="36" font-weight="700">98</text>
  <text x="200" y="148" fill="#8b8ba0" font-family="system-ui,sans-serif" font-size="12">First Contentful Paint</text>
  <text x="200" y="172" fill="#0cce6b" font-family="system-ui,sans-serif" font-size="22" font-weight="700">0.8 s</text>
  <rect x="200" y="182" width="280" height="6" rx="3" fill="#3d3d52"/>
  <rect x="200" y="182" width="252" height="6" rx="3" fill="#0cce6b"/>
  <text x="200" y="218" fill="#8b8ba0" font-family="system-ui,sans-serif" font-size="12">Largest Contentful Paint</text>
  <text x="200" y="242" fill="#0cce6b" font-family="system-ui,sans-serif" font-size="22" font-weight="700">1.2 s</text>
  <rect x="200" y="252" width="280" height="6" rx="3" fill="#3d3d52"/>
  <rect x="200" y="252" width="238" height="6" rx="3" fill="#0cce6b"/>
  <text x="200" y="288" fill="#8b8ba0" font-family="system-ui,sans-serif" font-size="12">Speed Index</text>
  <text x="200" y="312" fill="#0cce6b" font-family="system-ui,sans-serif" font-size="22" font-weight="700">1.4 s</text>
  <rect x="200" y="322" width="280" height="6" rx="3" fill="#3d3d52"/>
  <rect x="200" y="322" width="245" height="6" rx="3" fill="#0cce6b"/>
  <text x="200" y="358" fill="#8b8ba0" font-family="system-ui,sans-serif" font-size="12">Total Blocking Time</text>
  <text x="200" y="382" fill="#0cce6b" font-family="system-ui,sans-serif" font-size="22" font-weight="700">40 ms</text>
  <rect x="40" y="268" width="120" height="56" rx="10" fill="#0cce6b" fill-opacity="0.12"/>
  <text x="100" y="294" text-anchor="middle" fill="#0cce6b" font-family="system-ui,sans-serif" font-size="11">2E'F DH/ ©'ED</text>
  <text x="100" y="316" text-anchor="middle" fill="#fff" font-family="system-ui,sans-serif" font-size="20" font-weight="700">&lt; 2s</text>
</svg>
