<?xml version="1.0" encoding="UTF-8"?> <svg xmlns="http://www.w3.org/2000/svg" width="36" height="36" viewBox="0 0 36 36" fill="none"><rect width="36" height="36" fill="#9CEE6A" fill-opacity="0.32"></rect><path d="M19.0418 29C19.601 29 20.0545 28.5594 20.0545 28.016C20.0545 27.4726 19.601 27.032 19.0418 27.032C18.4825 27.032 18.0291 27.4726 18.0291 28.016C18.0291 28.5594 18.4825 29 19.0418 29Z" fill="#194200"></path><path d="M24.8592 21.3155L19.1535 21.9093C19.0491 21.9205 18.9952 21.7907 19.0783 21.728L24.662 17.5042C25.0246 17.2163 25.2554 16.7678 25.1564 16.2874C25.0573 15.5509 24.4311 15.0705 23.6404 15.1667L17.5738 16.0296C17.4668 16.045 17.4093 15.9118 17.4951 15.8482L23.5086 11.3873C24.6956 10.4909 24.7937 8.72923 23.7067 7.70488C22.7179 6.74411 21.1356 6.7759 20.1467 7.73667L10.4565 17.3117C10.0938 17.6959 9.92931 18.208 10.0284 18.7529C10.1929 19.6174 11.0827 20.194 11.9733 20.0342L17.197 18.9987C17.3102 18.9763 17.3721 19.1233 17.274 19.1834L11.478 22.7876C10.7528 23.2362 10.4237 24.0363 10.6537 24.8372C10.8845 25.8942 11.9724 26.5026 13.0267 26.2465L21.6901 24.1729C21.7874 24.1497 21.8591 24.2597 21.7963 24.3353L20.443 25.9578C20.0804 26.4064 20.6739 27.0148 21.1683 26.6625L25.6181 23.1081C26.4088 22.4679 25.8816 21.2184 24.8601 21.3146L24.8592 21.3155Z" fill="#194200"></path></svg> 