<?xml version="1.0" encoding="UTF-8"?> <svg xmlns="http://www.w3.org/2000/svg" width="36" height="36" viewBox="0 0 36 36" fill="none"><rect width="36" height="36" fill="#8A8A93" fill-opacity="0.1"></rect><mask id="mask0_3377_1539" style="mask-type:alpha" maskUnits="userSpaceOnUse" x="6" y="6" width="24" height="24"><rect x="6" y="6" width="24" height="24" fill="#D9D9D9"></rect></mask><g mask="url(#mask0_3377_1539)"><path d="M12.1155 27.5C11.389 27.5 10.7714 27.2476 10.2627 26.7428C9.75425 26.2379 9.5 25.6249 9.5 24.9038V11.1155C9.5 10.389 9.75425 9.77142 10.2627 9.26275C10.7714 8.75425 11.389 8.5 12.1155 8.5H22.8077V23.8077H12.1155C11.8065 23.8077 11.5433 23.9126 11.326 24.1223C11.1087 24.3321 11 24.5921 11 24.9023C11 25.2122 11.1087 25.4727 11.326 25.6838C11.5433 25.8946 11.8065 26 12.1155 26H25V10.5H26.5V27.5H12.1155ZM14.6923 22.3077H21.3077V10H14.6923V22.3077ZM13.1923 22.3077V10H12.1155C11.7993 10 11.5344 10.1087 11.3208 10.326C11.1069 10.5433 11 10.8065 11 11.1155V22.598C11.173 22.516 11.3498 22.4471 11.5305 22.3913C11.7112 22.3356 11.9062 22.3077 12.1155 22.3077H13.1923Z" fill="#64646C"></path></g></svg> 