<?xml version="1.0" encoding="UTF-8"?> <svg xmlns="http://www.w3.org/2000/svg" width="36" height="36" viewBox="0 0 36 36" fill="none"><rect width="36" height="36" fill="#7646DD" fill-opacity="0.12"></rect><mask id="mask0_3380_10011" style="mask-type:alpha" maskUnits="userSpaceOnUse" x="6" y="6" width="24" height="24"><rect x="6" y="6" width="24" height="24" fill="#D9D9D9"></rect></mask><g mask="url(#mask0_3380_10011)"><path d="M10.5 26.5V23.125L23.6943 9.94625C23.8494 9.79108 24.0199 9.67792 24.2057 9.60675C24.3917 9.53558 24.5777 9.5 24.7635 9.5C24.9597 9.5 25.1497 9.53558 25.3337 9.60675C25.5176 9.67792 25.6788 9.79108 25.8173 9.94625L27.0538 11.1827C27.2089 11.3212 27.3221 11.4824 27.3932 11.6663C27.4644 11.8503 27.5 12.0403 27.5 12.2365C27.5 12.4223 27.4644 12.6083 27.3932 12.7943C27.3221 12.9801 27.2089 13.1506 27.0538 13.3057L13.875 26.5H10.5ZM12 25H13.2365L23.427 14.825L22.8135 14.1865L22.175 13.573L12 23.7635V25ZM22.8135 14.1865L22.175 13.573L23.427 14.825L22.8135 14.1865ZM20.1348 26.5C21.3039 26.5 22.3878 26.2141 23.3865 25.6423C24.3852 25.0704 24.8845 24.273 24.8845 23.25C24.8845 22.6628 24.7086 22.1493 24.3568 21.7095C24.0048 21.2698 23.5108 20.8981 22.875 20.5942L21.7557 21.7135C22.2672 21.9058 22.6666 22.1324 22.9538 22.3932C23.2411 22.6541 23.3848 22.9397 23.3848 23.25C23.3848 23.723 23.0598 24.1329 22.4098 24.4798C21.7598 24.8266 21.0014 25 20.1348 25C19.9219 25 19.7437 25.0718 19.6 25.2155C19.4565 25.359 19.3848 25.5372 19.3848 25.75C19.3848 25.9628 19.4565 26.141 19.6 26.2845C19.7437 26.4282 19.9219 26.5 20.1348 26.5ZM11.0943 19.4365L12.2097 18.3115C11.8186 18.1462 11.5192 17.975 11.3115 17.798C11.1038 17.6212 11 17.4385 11 17.25C11 16.9987 11.1677 16.7506 11.503 16.5057C11.8382 16.2609 12.5051 15.9238 13.5037 15.4943C14.8936 14.8994 15.8238 14.3613 16.2943 13.8798C16.7648 13.3984 17 12.8552 17 12.25C17 11.4295 16.6542 10.7661 15.9625 10.2598C15.2708 9.75325 14.3667 9.5 13.25 9.5C12.5642 9.5 11.9334 9.62375 11.3577 9.87125C10.7821 10.1186 10.3519 10.4212 10.0673 10.779C9.92892 10.9443 9.87158 11.1267 9.89525 11.326C9.91892 11.5253 10.0135 11.6891 10.179 11.8173C10.3443 11.9494 10.5251 12.0036 10.7213 11.9798C10.9174 11.9561 11.0847 11.875 11.223 11.7365C11.4757 11.484 11.7661 11.2981 12.0943 11.1788C12.4224 11.0596 12.8077 11 13.25 11C13.9847 11 14.5433 11.124 14.926 11.372C15.3087 11.6202 15.5 11.9128 15.5 12.25C15.5 12.541 15.3349 12.8048 15.0048 13.0415C14.6748 13.278 13.9751 13.6379 12.9058 14.1212C11.6173 14.6852 10.7275 15.1903 10.2365 15.6365C9.7455 16.0827 9.5 16.6205 9.5 17.25C9.5 17.7192 9.64008 18.1317 9.92025 18.4875C10.2004 18.8433 10.5918 19.1597 11.0943 19.4365Z" fill="#7646DD"></path></g></svg> 