<?xml version="1.0" encoding="UTF-8"?> <svg xmlns="http://www.w3.org/2000/svg" width="36" height="36" viewBox="0 0 36 36" fill="none"><rect width="36" height="36" fill="#8A8A93" fill-opacity="0.1"></rect><mask id="mask0_3377_1549" style="mask-type:alpha" maskUnits="userSpaceOnUse" x="6" y="6" width="24" height="24"><rect x="6" y="6" width="24" height="24" fill="#D9D9D9"></rect></mask><g mask="url(#mask0_3377_1549)"><path d="M7.73071 28.2693L9.48846 22.2615C9.1718 21.5847 8.92788 20.891 8.75671 20.1805C8.58555 19.4702 8.49996 18.7433 8.49996 18C8.49996 16.6858 8.7493 15.4508 9.24796 14.295C9.74663 13.1392 10.4234 12.1338 11.2782 11.2788C12.133 10.4238 13.1383 9.74692 14.294 9.24825C15.4496 8.74942 16.6844 8.5 17.9982 8.5C19.3122 8.5 20.5473 8.74933 21.7035 9.248C22.8596 9.74667 23.8653 10.4234 24.7205 11.2783C25.5756 12.1331 26.2527 13.1383 26.7517 14.294C27.2505 15.4497 27.5 16.6844 27.5 17.9983C27.5 19.3123 27.2505 20.5473 26.7517 21.7035C26.253 22.8597 25.5762 23.8653 24.7212 24.7205C23.8662 25.5757 22.8608 26.2528 21.705 26.7518C20.5491 27.2506 19.3141 27.5 18 27.5C17.2566 27.5 16.5298 27.4144 15.8195 27.2432C15.109 27.0721 14.4153 26.8282 13.7385 26.5115L7.73071 28.2693ZM9.94996 26.05L13.15 25.1C13.3961 25.0333 13.6336 25.0052 13.8625 25.0155C14.0913 25.0257 14.3205 25.0872 14.55 25.2C15.0833 25.4667 15.6416 25.6667 16.225 25.8C16.8083 25.9333 17.4 26 18 26C20.2333 26 22.125 25.225 23.675 23.675C25.225 22.125 26 20.2333 26 18C26 15.7667 25.225 13.875 23.675 12.325C22.125 10.775 20.2333 10 18 10C15.7666 10 13.875 10.775 12.325 12.325C10.775 13.875 9.99996 15.7667 9.99996 18C9.99996 18.6 10.0666 19.1917 10.2 19.775C10.3333 20.3583 10.5333 20.9167 10.8 21.45C10.9166 21.6667 10.9807 21.8958 10.9922 22.1375C11.0037 22.3792 10.973 22.6167 10.9 22.85L9.94996 26.05ZM17.25 21.75H18.75V18.75H21.75V17.25H18.75V14.25H17.25V17.25H14.25V18.75H17.25V21.75Z" fill="#64646C"></path></g></svg> 