<?xml version="1.0" encoding="UTF-8"?> <svg xmlns="http://www.w3.org/2000/svg" width="36" height="36" viewBox="0 0 36 36" fill="none"><rect width="36" height="36" fill="#8A8A93" fill-opacity="0.1"></rect><mask id="mask0_3377_1529" style="mask-type:alpha" maskUnits="userSpaceOnUse" x="6" y="6" width="24" height="24"><rect x="6" y="6" width="24" height="24" fill="#D9D9D9"></rect></mask><g mask="url(#mask0_3377_1529)"><path d="M17.989 23.6152C18.2745 23.6152 18.5157 23.5168 18.7125 23.3198C18.9093 23.1226 19.0078 22.8812 19.0078 22.5955C19.0078 22.31 18.9092 22.0688 18.712 21.872C18.5148 21.6753 18.2735 21.577 17.988 21.577C17.7025 21.577 17.4613 21.6756 17.2645 21.8728C17.0677 22.0699 16.9692 22.3113 16.9692 22.5968C16.9692 22.8823 17.0678 23.1234 17.265 23.3203C17.4622 23.5169 17.7035 23.6152 17.989 23.6152ZM17.2808 20.0345H18.6885C18.7013 19.5423 18.7734 19.1491 18.9047 18.8548C19.0362 18.5606 19.3552 18.1706 19.8615 17.6848C20.3013 17.2449 20.6382 16.8388 20.872 16.4663C21.106 16.0939 21.223 15.6542 21.223 15.147C21.223 14.2862 20.9137 13.6138 20.2952 13.1298C19.6766 12.6459 18.9448 12.404 18.1 12.404C17.2653 12.404 16.5747 12.6268 16.028 13.0723C15.4812 13.5178 15.0911 14.0424 14.8577 14.6462L16.1423 15.1615C16.2641 14.8295 16.4724 14.5061 16.7673 14.1913C17.0621 13.8766 17.4999 13.7193 18.0808 13.7193C18.6718 13.7193 19.1086 13.8811 19.3913 14.2048C19.6741 14.5286 19.8155 14.8847 19.8155 15.273C19.8155 15.6128 19.7187 15.9237 19.525 16.2057C19.3315 16.4877 19.0848 16.7602 18.7848 17.023C18.1283 17.6153 17.7135 18.0878 17.5405 18.4405C17.3673 18.793 17.2808 19.3243 17.2808 20.0345ZM18.0017 27.5C16.6877 27.5 15.4527 27.2507 14.2965 26.752C13.1403 26.2533 12.1347 25.5766 11.2795 24.7218C10.4243 23.8669 9.74725 22.8617 9.24825 21.706C8.74942 20.5503 8.5 19.3156 8.5 18.0017C8.5 16.6877 8.74933 15.4527 9.248 14.2965C9.74667 13.1403 10.4234 12.1347 11.2783 11.2795C12.1331 10.4243 13.1383 9.74725 14.294 9.24825C15.4497 8.74942 16.6844 8.5 17.9983 8.5C19.3123 8.5 20.5473 8.74933 21.7035 9.248C22.8597 9.74667 23.8653 10.4234 24.7205 11.2783C25.5757 12.1331 26.2528 13.1383 26.7518 14.294C27.2506 15.4497 27.5 16.6844 27.5 17.9983C27.5 19.3123 27.2507 20.5473 26.752 21.7035C26.2533 22.8597 25.5766 23.8653 24.7218 24.7205C23.8669 25.5757 22.8617 26.2528 21.706 26.7518C20.5503 27.2506 19.3156 27.5 18.0017 27.5ZM18 26C20.2333 26 22.125 25.225 23.675 23.675C25.225 22.125 26 20.2333 26 18C26 15.7667 25.225 13.875 23.675 12.325C22.125 10.775 20.2333 10 18 10C15.7667 10 13.875 10.775 12.325 12.325C10.775 13.875 10 15.7667 10 18C10 20.2333 10.775 22.125 12.325 23.675C13.875 25.225 15.7667 26 18 26Z" fill="#64646C"></path></g></svg> 